<?xml version="1.0" encoding="utf-8"?>
<!-- Generator: Adobe Illustrator 16.0.0, SVG Export Plug-In . SVG Version: 6.00 Build 0)  -->
<!DOCTYPE svg PUBLIC "-//W3C//DTD SVG 1.1//EN" "http://www.w3.org/Graphics/SVG/1.1/DTD/svg11.dtd">
<svg version="1.1" id="Layer_1" xmlns="http://www.w3.org/2000/svg" xmlns:xlink="http://www.w3.org/1999/xlink" x="0px" y="0px"
	 width="800px" height="338.22px" viewBox="0 0 800 338.22" enable-background="new 0 0 800 338.22" xml:space="preserve">
<rect x="3.937" fill="#EE3124" width="796.063" height="338.22"/>
<g>
	<path fill="#FFFFFF" d="M171.208,103.943c-4.132-4.211-8.636-7.382-13.499-9.483c-4.872-2.12-10.087-3.168-15.634-3.176
		c-12.053-0.003-22.302,4.603-30.746,13.835c-8.438,9.233-12.658,21.072-12.666,35.521c-0.008,13.94,4.339,25.594,13.065,34.968
		c8.707,9.395,19.04,14.091,30.985,14.091c5.326,0.01,10.269-0.961,14.825-2.869c4.556-1.926,9.104-5.058,13.634-9.433l-0.002,9.909
		l23.33-0.003V93.716h-23.286L171.208,103.943z M165.044,160.471c-4.803,5.143-10.847,7.699-18.125,7.7
		c-7.056-0.005-13-2.616-17.822-7.85c-4.83-5.23-7.242-11.909-7.235-20.008c0.01-8.053,2.384-14.642,7.123-19.791
		c4.748-5.148,10.698-7.708,17.867-7.704c7.345,0,13.416,2.534,18.214,7.581c4.787,5.075,6.342,10.834,6.329,18.995
		C171.396,147.736,169.839,155.328,165.044,160.471z M328.271,103.943c-4.132-4.211-8.635-7.382-13.497-9.483
		c-4.871-2.12-10.09-3.168-15.636-3.176c-12.052-0.003-22.301,4.603-30.746,13.835c-8.438,9.233-12.656,21.072-12.664,35.521
		c-0.008,13.94,4.338,25.594,13.063,34.968c8.707,9.395,19.041,14.091,30.986,14.091c5.325,0.01,10.27-0.961,14.826-2.869
		c4.554-1.926,9.104-5.058,13.633-9.433l-0.002,9.909l23.331-0.003V93.716h-23.288L328.271,103.943z M322.106,160.471
		c-4.8,5.143-10.843,7.699-18.122,7.7c-7.055-0.005-12.998-2.616-17.822-7.85c-4.83-5.23-7.242-11.909-7.235-20.008
		c0.011-8.053,2.383-14.642,7.123-19.791c4.749-5.148,10.7-7.708,17.87-7.704c7.344,0,13.414,2.534,18.211,7.582
		c4.787,5.074,6.343,10.833,6.33,18.994C328.46,147.736,326.903,155.328,322.106,160.471z M491.918,96.013
		c-5-3.101-10.803-4.651-17.404-4.651c-6.383-0.002-12.252,1.443-17.643,4.332c-5.371,2.888-9.912,7.102-13.619,12.658
		c-2.842-5.561-6.594-9.785-11.254-12.669c-4.676-2.898-9.906-4.345-15.719-4.355c-5.746,0-11.052,1.089-15.927,3.289
		c-4.858,2.195-9.288,5.515-13.274,9.97V93.716h-23.331l-0.041,93.591h23.329l0.023-41.523c0.009-8.968,0.794-15.549,2.368-19.719
		c1.569-4.181,3.942-7.421,7.117-9.741c3.173-2.313,6.696-3.477,10.574-3.484c3.49,0.014,6.455,0.934,8.918,2.761
		c2.455,1.84,4.295,4.629,5.523,8.374c1.227,3.746,1.834,9.795,1.834,18.151l-0.029,45.182h23.348l0.008-42.1
		c0.014-8.912,0.789-15.391,2.332-19.419c1.545-4.03,3.908-7.189,7.078-9.473c3.164-2.284,6.762-3.429,10.768-3.429
		c5.262,0,9.193,1.883,11.83,5.622c2.633,3.751,3.943,10.915,3.939,21.499l-0.018,47.3h23.324l0.029-54.804
		c0-11.243-1.09-19.365-3.279-24.345C500.539,103.163,496.936,99.112,491.918,96.013z M587.426,159.73
		c-6.242,6.231-13.713,9.331-22.391,9.332c-7.281-0.009-13.238-2.007-17.928-5.979c-4.688-3.991-7.561-9.355-8.643-16.106
		l74.834,0.043l0.088-4.451c0-15.412-4.57-27.827-13.729-37.231c-9.146-9.388-21.041-14.093-35.662-14.107
		c-13.773-0.004-25.221,4.708-34.352,14.148c-9.133,9.424-13.697,21.276-13.713,35.553c-0.006,13.947,4.564,25.543,13.707,34.809
		c9.137,9.271,20.98,13.901,35.523,13.905c9.377,0.004,17.461-1.674,24.289-5.029c6.816-3.354,12.67-8.543,17.555-15.555
		L587.426,159.73z M548.096,116.71c4.893-3.617,10.6-5.421,17.1-5.414c5.984,0,11.238,1.61,15.76,4.838
		c4.531,3.229,7.564,7.404,9.098,12.558l-50.51-0.032C542.158,122.958,545.014,118.967,548.096,116.71z M668.662,137.792
		l31.535-44.091h-26.613l-18.246,25.513l-18.314-25.513h-27.018l31.85,44.357l-35.209,49.248h26.605l21.932-30.675l22.027,30.675
		h27.023L668.662,137.792z M250.657,90.848c-4.328,0-8.073,0.808-11.244,2.402c-3.098,1.552-6.65,4.41-10.656,8.592l-0.007-8.126
		h-22.277v93.591h23.331l-0.013-48.663c-0.004-17.846,4.914-26.781,16.8-26.783c2.073,0,4.172,0.431,6.296,1.245
		c3.826-6.436,8.25-12.476,13.202-18.036C260.759,92.313,255.604,90.847,250.657,90.848z"/>
	<g>
		<path fill="#FFFFFF" d="M131.954,248.145h-2.348l-0.999-2.091c-2.34,1.9-4.719,2.853-7.136,2.853c-3.41,0-6.129-0.961-8.159-2.882
			c-2.433-2.321-3.649-5.869-3.649-10.64c0-9.044,3.764-13.567,11.292-13.567c2.494,0,5.057,0.892,7.691,2.676
			c-0.271-0.605-0.407-1.318-0.407-2.14v-11.272h3.715V248.145z M128.239,243.099v-15.753c-1.955-0.914-3.125-1.448-3.513-1.603
			c-1.365-0.511-2.622-0.767-3.769-0.767c-2.622,0-4.525,0.828-5.711,2.487c-1.187,1.655-1.78,4.297-1.78,7.921
			c0,6.985,2.668,10.479,8.004,10.479C123.345,245.864,125.601,244.942,128.239,243.099z"/>
		<path fill="#FFFFFF" d="M160.227,236.445h-18.81c0.108,3.291,0.713,5.639,1.812,7.044c1.192,1.546,3.238,2.317,6.134,2.317
			c3.563,0,5.964-1.233,7.203-3.701l3.229,1.276c-1.796,3.685-5.274,5.525-10.432,5.525c-4.104,0-7.113-1.081-9.027-3.24
			c-1.912-2.161-2.868-5.604-2.868-10.328c0-4.49,0.867-7.813,2.604-9.967c1.906-2.37,5.021-3.554,9.346-3.554
			c4.355,0,7.354,1.356,8.996,4.069c1.208,2,1.814,5.154,1.814,9.464V236.445z M156.365,233.314c0-2.83-0.442-4.874-1.326-6.134
			c-1.07-1.509-2.944-2.262-5.626-2.262c-2.587,0-4.493,0.606-5.718,1.818c-1.333,1.309-2.093,3.498-2.278,6.577H156.365z"/>
		<path fill="#FFFFFF" d="M174.575,248.555h-1.905c-3.811,0-5.716-2.061-5.716-6.182v-28.075h-3.949v-3.217h7.665v31.283
			c0,1.903,0.697,2.856,2.092,2.856h1.813V248.555z"/>
		<path fill="#FFFFFF" d="M188.341,248.555h-1.999c-3.748,0-5.622-2.047-5.622-6.139V227.47c0-0.497,0.116-1.055,0.35-1.675h-4.299
			v-3.218h7.664v19.833c0,1.874,0.636,2.811,1.907,2.811h1.999V248.555z M184.435,215.272c0,0.249-0.107,0.373-0.325,0.373h-3.854
			c-0.232,0-0.348-0.124-0.348-0.373v-3.724c0-0.312,0.116-0.467,0.348-0.467h3.854c0.218,0,0.325,0.155,0.325,0.467V215.272z"/>
		<path fill="#FFFFFF" d="M213.22,222.578l-9.619,25.567h-4.274l-9.619-25.567h3.856l6.994,18.851
			c0.309,0.822,0.611,2.124,0.906,3.905c0.154-0.853,0.473-2.168,0.952-3.951l6.901-18.805H213.22z"/>
		<path fill="#FFFFFF" d="M238.408,236.445h-18.81c0.108,3.291,0.713,5.639,1.812,7.044c1.193,1.546,3.238,2.317,6.134,2.317
			c3.563,0,5.964-1.233,7.203-3.701l3.23,1.276c-1.797,3.685-5.275,5.525-10.433,5.525c-4.104,0-7.113-1.081-9.026-3.24
			c-1.913-2.161-2.869-5.604-2.869-10.328c0-4.49,0.867-7.813,2.604-9.967c1.906-2.37,5.021-3.554,9.346-3.554
			c4.355,0,7.354,1.356,8.996,4.069c1.209,2,1.814,5.154,1.814,9.464V236.445z M234.546,233.314c0-2.83-0.442-4.874-1.325-6.134
			c-1.069-1.509-2.945-2.262-5.625-2.262c-2.588,0-4.494,0.606-5.719,1.818c-1.333,1.309-2.093,3.498-2.278,6.577H234.546z"/>
		<path fill="#FFFFFF" d="M256.862,225.678c-0.667-0.137-1.411-0.204-2.232-0.204c-2.014,0-3.835,0.682-5.461,2.046l-1.488,1.231
			v19.394h-3.715v-25.567h3.09l0.627,2.683l2.185-1.815c1.316-1.084,2.904-1.627,4.763-1.627c0.696,0,1.44,0.085,2.23,0.255V225.678
			z"/>
		<path fill="#FFFFFF" d="M282.961,222.578l-12.082,32.258c-0.666,1.779-1.576,3.026-2.73,3.739
			c-1.154,0.711-2.815,1.067-4.984,1.067h-3.276v-3.335h3.276c1.426,0,2.425-0.201,2.997-0.604c0.496-0.356,0.977-1.154,1.441-2.393
			l1.65-4.507l-9.852-26.227h3.903l7.041,18.805c0.092,0.266,0.378,1.34,0.859,3.23c0.371-1.502,0.673-2.579,0.906-3.23
			l6.992-18.805H282.961z"/>
		<path fill="#FFFFFF" d="M320.312,248.145h-2.928l-0.813-3.089l-1.86,1.276c-2.479,1.717-4.672,2.574-6.578,2.574
			c-2.774,0-4.936-0.759-6.484-2.279c-1.737-1.671-2.604-4.181-2.604-7.528v-16.521h3.715v16.375c0,4.569,1.788,6.854,5.362,6.854
			c1.703,0,3.685-0.753,5.944-2.254l2.53-1.648v-19.326h3.715V248.145z"/>
		<path fill="#FFFFFF" d="M348.132,248.145h-3.715v-16.39c0-4.56-1.788-6.837-5.363-6.837c-1.718,0-3.7,0.744-5.943,2.232
			l-2.531,1.673v19.321h-3.715v-25.567h2.949l0.813,3.101l1.856-1.279c2.477-1.721,4.668-2.581,6.571-2.581
			c2.755,0,4.914,0.759,6.478,2.277c1.733,1.674,2.601,4.184,2.601,7.529V248.145z"/>
		<path fill="#FFFFFF" d="M363.211,248.555h-1.906c-3.812,0-5.716-2.061-5.716-6.182v-28.075h-3.95v-3.217h7.665v31.283
			c0,1.903,0.698,2.856,2.092,2.856h1.814V248.555z"/>
		<path fill="#FFFFFF" d="M376.977,248.555h-1.998c-3.75,0-5.624-2.047-5.624-6.139V227.47c0-0.497,0.117-1.055,0.349-1.675h-4.297
			v-3.218h7.663v19.833c0,1.874,0.636,2.811,1.906,2.811h2.001V248.555z M373.07,215.272c0,0.249-0.109,0.373-0.325,0.373h-3.854
			c-0.232,0-0.348-0.124-0.348-0.373v-3.724c0-0.312,0.116-0.467,0.348-0.467h3.854c0.216,0,0.325,0.155,0.325,0.467V215.272z"/>
		<path fill="#FFFFFF" d="M416.766,248.145h-3.715V231.87c0-4.633-1.381-6.951-4.141-6.951c-1.705,0-3.813,0.868-6.325,2.604
			l-1.722,1.187c0.128,0.775,0.194,1.828,0.194,3.161v16.275h-3.716V231.87c0-4.633-1.41-6.951-4.231-6.951
			c-1.535,0-3.474,0.822-5.816,2.464l-2.092,1.488v19.274h-3.715v-25.567h2.999l0.719,3.101l1.768-1.186
			c2.634-1.783,4.679-2.675,6.135-2.675c3.286,0,5.586,1.356,6.903,4.069l1.814-1.302c1.393-0.992,2.461-1.652,3.205-1.979
			c1.147-0.526,2.442-0.789,3.882-0.789c5.236,0,7.855,3.354,7.855,10.062V248.145z"/>
		<path fill="#FFFFFF" d="M432.551,248.555h-1.998c-3.748,0-5.623-2.047-5.623-6.139V227.47c0-0.497,0.115-1.055,0.35-1.675h-4.299
			v-3.218h7.666v19.833c0,1.874,0.635,2.811,1.906,2.811h1.998V248.555z M428.646,215.272c0,0.249-0.109,0.373-0.326,0.373h-3.855
			c-0.232,0-0.348-0.124-0.348-0.373v-3.724c0-0.312,0.115-0.467,0.348-0.467h3.855c0.217,0,0.326,0.155,0.326,0.467V215.272z"/>
		<path fill="#FFFFFF" d="M453.484,246.818c-1.689,1.393-4.232,2.089-7.627,2.089c-4.479,0-6.719-2.332-6.719-6.992v-14.15
			c0-0.401,0.15-1.028,0.449-1.88h-4.809v-3.307h4.359v-8.651l3.715-1.089v9.74h9.234l-1.094,3.307h-8.141v16.03
			c0,1.472,0.34,2.508,1.023,3.112c0.635,0.56,1.689,0.837,3.162,0.837c1.289,0,2.66-0.479,4.119-1.435L453.484,246.818z"/>
		<path fill="#FFFFFF" d="M479.041,236.445H460.23c0.107,3.291,0.713,5.639,1.813,7.044c1.193,1.546,3.238,2.317,6.133,2.317
			c3.561,0,5.965-1.233,7.205-3.701l3.229,1.276c-1.799,3.685-5.275,5.525-10.434,5.525c-4.105,0-7.111-1.081-9.025-3.24
			c-1.912-2.161-2.869-5.604-2.869-10.328c0-4.49,0.865-7.813,2.604-9.967c1.904-2.37,5.02-3.554,9.348-3.554
			c4.354,0,7.352,1.356,8.994,4.069c1.209,2,1.814,5.154,1.814,9.464V236.445z M475.178,233.314c0-2.83-0.441-4.874-1.324-6.134
			c-1.07-1.509-2.945-2.262-5.625-2.262c-2.59,0-4.494,0.606-5.721,1.818c-1.332,1.309-2.092,3.498-2.277,6.577H475.178z"/>
		<path fill="#FFFFFF" d="M505.924,248.145h-2.348l-1-2.091c-2.34,1.9-4.719,2.853-7.135,2.853c-3.408,0-6.131-0.961-8.158-2.882
			c-2.434-2.321-3.65-5.869-3.65-10.64c0-9.044,3.764-13.567,11.291-13.567c2.496,0,5.059,0.892,7.691,2.676
			c-0.271-0.605-0.406-1.318-0.406-2.14v-11.272h3.715V248.145z M502.209,243.099v-15.753c-1.955-0.914-3.127-1.448-3.514-1.603
			c-1.363-0.511-2.619-0.767-3.768-0.767c-2.621,0-4.527,0.828-5.713,2.487c-1.186,1.655-1.779,4.297-1.779,7.921
			c0,6.985,2.668,10.479,8.002,10.479C497.316,245.864,499.572,244.942,502.209,243.099z"/>
	</g>
</g>
</svg>
